# 3ds Max Wavefront OBJ Exporter v0.97b - (c)2007 guruware
# File Created: 27.08.2016 03:22:53

mtllib Unagi.mtl

#
# object Unagi
#

v  -0.9489 -12.6012 -46.9410
v  -1.2183 -10.5706 -51.7299
v  1.4445 -7.9071 -38.0043
v  -0.9034 -6.7483 -48.1164
v  -0.2300 -3.9855 -38.6534
v  -0.1477 -7.5508 -36.2482
v  -0.2916 -11.5812 -37.1676
v  -1.9375 -7.8368 -37.7841
v  5.0395 0.7684 32.3476
v  -4.8120 1.9681 27.2085
v  -4.2578 0.7185 32.5686
v  -2.2531 1.2794 40.0222
v  3.1153 1.3083 39.8946
v  0.4847 0.7580 42.7186
v  5.2049 2.0220 26.9705
v  -4.8119 1.9382 27.2101
v  1.9665 -3.1258 27.1805
v  5.2051 1.9921 26.9719
v  -2.4265 3.0885 40.7047
v  -4.2577 0.9787 32.6297
v  3.3018 3.1193 40.5684
v  0.4856 3.1911 43.3053
v  5.0395 1.0287 32.4086
v  -1.6624 -3.1453 27.2668
v  0.3848 -0.9588 38.1324
v  0.3223 -2.9735 35.0461
v  3.9056 6.4614 35.1704
v  1.7054 9.3389 26.5880
v  0.2376 8.4490 34.0647
v  0.3384 7.1649 38.0102
v  -3.2023 6.4231 35.3394
v  -1.5637 9.3212 26.6657
v  -3.4246 3.5496 20.2964
v  -1.8213 -2.6674 20.6925
v  -0.1444 3.3823 16.8627
v  -0.1377 7.0795 17.9805
v  1.8077 -2.6478 20.6062
v  3.4733 3.5867 20.1324
v  1.5864 6.2300 41.0680
v  -0.7229 6.2176 41.1228
v  2.7653 -4.2868 30.2187
v  1.6794 -2.7094 25.2908
v  -2.3032 -4.3141 30.3392
v  -1.4397 -2.7262 25.3650
v  -0.4513 4.0902 7.4699
v  3.1535 3.6636 4.4551
v  -0.3752 8.4154 3.7200
v  2.8977 1.6083 -10.3514
v  -0.0615 6.0931 -11.0373
v  -2.7410 1.6042 -10.4706
v  -3.5949 3.6588 4.3124
v  -0.0267 1.3132 -12.5235
v  -0.3982 -1.8955 5.1519
v  -0.0832 -3.5345 -9.7003
v  -0.0680 2.5416 -7.7858
v  2.8984 1.5867 -10.4115
v  -0.0424 5.8737 -11.9333
v  2.6087 -3.3909 -24.4018
v  -0.0629 0.7529 -25.8730
v  -2.4611 -3.3579 -24.4064
v  -2.7415 1.6235 -10.4167
v  -0.0944 -4.1781 -26.6652
v  -0.1051 -3.2832 -8.6740
v  -0.1219 -7.8670 -22.8047
v  -0.0631 -2.6135 -22.1282
v  2.6083 -3.3901 -24.4013
v  -0.0631 0.7914 -25.7624
v  1.4480 -7.8981 -37.9373
v  -0.1221 -7.8879 -22.8668
v  -2.4611 -3.3398 -24.3543
v  -1.9416 -7.8644 -37.9059
v  -0.2862 -11.4668 -36.7253
v  -0.2362 -4.1247 -39.1747
v  -0.2805 -8.3747 -39.4012
v  -3.5744 3.5750 20.3175
v  -1.8770 -2.6690 20.3346
v  0.0067 3.5458 23.7855
v  -0.3757 8.4352 4.4393
v  3.1529 3.6577 4.3383
v  -0.4460 3.6833 1.4708
v  -3.5957 3.6721 4.4752
v  -0.3991 -1.9745 4.3755
v  1.7523 -2.6767 20.2609
v  3.6241 3.5598 20.1715
v  -0.1001 8.8317 17.9690
v  -3.3222 6.4225 35.3422
v  -2.5465 3.0878 40.7075
v  -0.8428 6.2170 41.1257
v  0.3956 3.1906 43.3075
v  0.6057 3.1918 43.3025
v  3.4217 3.1199 40.5656
v  1.7064 6.2307 41.0651
v  4.0255 6.4620 35.1675
v  4.8194 0.6466 31.9029
v  2.9552 2.5372 39.7465
v  2.9338 1.2172 39.8090
v  -4.0579 0.5989 32.1140
v  -2.0747 1.1903 39.9281
v  -2.1134 2.5100 39.8670
v  0.4714 2.9478 42.6557
v  0.4797 0.7277 42.5088
v  -2.3309 1.6113 40.6038
v  0.4922 1.1378 43.1182
v  0.4790 3.3276 43.0576
v  -2.3431 3.2254 40.4547
v  4.9436 1.1664 32.1929
v  3.2052 3.2553 40.3229
v  3.2174 1.6411 40.4718
v  -4.1736 1.1174 32.4096
v  -2.3609 1.6111 40.6045
# 110 vertices

vn -0.0391 -0.9635 -0.2649
vn -0.0685 -0.2002 -0.9774
vn 0.9644 0.0356 0.2619
vn -0.0258 0.7835 -0.6208
vn 0.0319 0.9753 0.2188
vn 0.0639 0.1839 0.9809
vn 0.0170 -0.8234 0.5672
vn -0.9212 0.0744 0.3820
vn 0.0002 0.9739 0.2270
vn -0.0071 0.9973 -0.0731
vn -0.0071 0.9973 -0.0732
vn -0.0008 0.9817 0.1906
vn 0.0002 0.9739 0.2271
vn 0.0236 0.0258 0.9994
vn 0.0112 -0.9681 0.2504
vn 0.0061 -0.9995 0.0325
vn 0.0011 -0.9847 -0.1744
vn 0.0011 -0.9847 -0.1745
vn -0.5424 -0.8142 0.2072
vn -0.6965 -0.5943 0.4021
vn -0.4703 -0.8231 0.3184
vn 0.4896 -0.8200 0.2963
vn 0.5475 -0.8131 0.1978
vn 0.6985 -0.6056 0.3812
vn 0.9773 0.1129 0.1792
vn 0.4233 0.8861 0.1886
vn 0.3924 0.8775 0.2756
vn 0.9010 0.4246 -0.0886
vn 0.9828 0.1742 0.0608
vn -0.4024 0.8674 0.2926
vn -0.9157 0.4000 -0.0394
vn -0.9140 0.3954 -0.0912
vn -0.0026 0.9930 0.1177
vn -0.4374 0.8745 0.2096
vn -0.8499 -0.5267 -0.0177
vn -0.7099 -0.2256 -0.6672
vn -0.7868 0.5540 -0.2722
vn -0.7023 0.2072 -0.6810
vn -0.9343 -0.2567 -0.2473
vn 0.0037 -0.9974 -0.0726
vn -0.0173 -0.5314 -0.8470
vn -0.9761 0.0909 0.1976
vn -0.9839 0.1293 0.1235
vn 0.6596 -0.2306 -0.7154
vn 0.6473 0.2195 -0.7299
vn 0.9174 -0.2675 -0.2947
vn 0.0036 -0.9974 -0.0726
vn 0.8424 -0.5355 -0.0593
vn -0.0112 0.9678 -0.2516
vn 0.8978 0.4209 -0.1292
vn 0.7501 0.5823 -0.3135
vn 0.4304 0.7113 0.5557
vn 0.7823 0.3485 0.5162
vn 0.6303 0.7255 0.2763
vn -0.0075 0.9809 0.1946
vn -0.4146 0.7076 0.5722
vn -0.6318 0.7163 0.2963
vn -0.7652 0.3439 0.5442
vn 0.0164 0.4217 0.9066
vn 0.8790 -0.4375 -0.1896
vn 0.5308 -0.8472 0.0243
vn 0.4089 -0.8391 -0.3587
vn -0.8706 -0.4377 0.2246
vn -0.8953 -0.4246 -0.1346
vn -0.5332 -0.8443 0.0523
vn 0.0061 -0.8343 0.5513
vn -0.4217 -0.8400 -0.3414
vn 0.8724 -0.4610 0.1627
vn 0.5809 0.5273 0.6200
vn 0.8375 0.5423 -0.0675
vn -0.8288 0.5456 -0.1237
vn -0.8599 0.5011 -0.0971
vn 0.8062 0.5840 -0.0950
vn -0.6443 0.5074 0.5722
vn 0.5611 0.2495 -0.7893
vn -0.5690 0.2404 -0.7864
vn -0.8897 -0.4555 0.0314
vn -0.8678 -0.4966 0.0189
vn -0.5787 -0.4054 -0.7077
vn 0.5947 -0.2857 0.7515
vn 0.8446 -0.5322 0.0593
vn 0.8668 -0.4932 0.0728
vn -0.6621 -0.2757 0.6969
vn 0.5683 -0.4190 -0.7082
vn 0.6281 0.6047 0.4897
vn 0.8546 0.4870 -0.1802
vn -0.8581 0.4781 -0.1874
vn -0.8764 0.4524 -0.1649
vn 0.8397 0.5059 -0.1974
vn -0.6613 0.5867 0.4673
vn 0.6163 0.1211 -0.7781
vn -0.6626 0.1229 -0.7389
vn -0.8983 -0.4175 0.1365
vn -0.8920 -0.4311 0.1356
vn -0.6739 -0.5318 -0.5129
vn 0.6360 -0.1203 0.7623
vn 0.8646 -0.4788 0.1525
vn 0.8670 -0.4743 0.1528
vn -0.6786 -0.1065 0.7267
vn 0.6186 -0.5702 -0.5405
vn 0.6218 0.5715 0.5355
vn 0.8524 0.4698 -0.2295
vn 0.8647 -0.4941 0.0904
vn 0.6241 -0.1152 0.7728
vn -0.8980 -0.4265 0.1080
vn 0.9077 -0.4089 0.0948
vn -0.9163 -0.3849 0.1103
vn -0.6613 -0.0968 0.7439
vn 0.9203 0.3632 -0.1450
vn 0.6343 -0.5066 -0.5840
vn 0.6404 0.0342 -0.7673
vn -0.9181 0.3759 -0.1259
vn -0.6603 0.0468 -0.7495
vn -0.6615 -0.4900 -0.5677
vn -0.8761 0.4463 -0.1826
vn -0.6502 0.5545 0.5195
vn -0.6845 -0.1842 0.7053
vn 0.5640 0.4315 -0.7041
vn -0.6274 0.4192 -0.6562
vn -0.6451 -0.3532 -0.6776
vn 0.5776 -0.3691 -0.7282
vn 0.6932 -0.1981 0.6930
vn 0.0167 -0.4892 0.8720
vn -0.9650 -0.2623 -0.0003
vn -0.8665 -0.4887 -0.1015
vn 0.8375 -0.5291 -0.1368
vn 0.9572 -0.2877 -0.0303
vn -0.0030 -0.9990 -0.0438
vn 0.0087 0.7401 0.6724
vn 0.7135 0.6311 0.3042
vn -0.0061 0.9709 0.2394
vn -0.7136 0.6186 0.3289
vn -0.8298 0.5581 0.0016
vn 0.8085 0.5878 -0.0302
vn -0.0220 0.9993 -0.0288
vn -0.8351 0.4049 0.3724
vn -0.6453 0.2551 0.7201
vn 0.6760 0.2622 0.6887
vn 0.8435 0.4093 0.3478
vn 0.9726 -0.0048 0.2323
vn 0.8829 0.0079 0.4694
vn 0.8844 -0.0028 0.4668
vn -0.9688 -0.0170 0.2472
vn -0.8703 -0.0133 0.4924
vn -0.8686 -0.0025 0.4956
vn 0.0213 -0.0464 0.9987
vn 0.0212 -0.0659 0.9976
vn -0.6735 0.0481 0.7376
vn 0.0212 0.0278 0.9994
vn 0.0208 0.0442 0.9988
vn -0.6779 0.0625 0.7325
vn 0.9789 0.0261 0.2026
vn 0.8741 0.0512 0.4830
vn 0.8686 0.0438 0.4935
vn -0.9763 0.0306 0.2141
# 155 vertex normals

vt 0.6602 0.8750 0.0000
vt 0.9648 0.4668 0.0000
vt 0.0000 0.4688 0.0000
vt 0.6621 0.0430 0.0000
vt 0.0000 0.0000 0.0000
vt -0.1484 0.4668 0.0000
vt 0.0000 0.9941 0.0000
vt 0.0000 0.4668 0.0000
vt -0.0977 0.5234 0.0000
vt 0.8750 0.8711 0.0000
vt 0.8320 0.5234 0.0000
vt 0.6484 0.0469 0.0000
vt 0.1133 0.0469 0.0000
vt 0.3828 -0.1289 0.0000
vt 0.0000 0.8711 0.0000
vt 0.5391 0.5547 0.0000
vt 0.8555 0.8711 0.0000
vt 0.0820 0.0039 0.0000
vt -0.0820 0.5273 0.0000
vt 0.6523 0.0039 0.0000
vt 0.3672 -0.1641 0.0000
vt 0.8438 0.5273 0.0000
vt 0.1797 0.5547 0.0000
vt 0.1445 0.8105 0.0000
vt 0.0586 0.6543 0.0000
vt 0.4063 0.6934 0.0000
vt 0.2871 0.9512 0.0000
vt -0.0664 0.6934 0.0000
vt 0.0254 0.5781 0.0000
vt 0.4043 0.6934 0.0000
vt 0.2656 0.3242 0.0000
vt 0.6563 0.0898 0.0000
vt 0.3145 0.1816 0.0000
vt 0.1367 0.2852 0.0000
vt 0.6523 0.6055 0.0000
vt 0.9668 0.4668 0.0000
vt 0.9629 0.9004 0.0000
vt 0.6602 0.9570 0.0000
vt 1.1230 0.4668 0.0000
vt 1.0625 0.2148 0.0000
vt 0.0146 0.3580 0.0000
vt 0.0129 0.5820 0.0000
vt 0.6543 0.6055 0.0000
vt 0.5043 0.9990 0.0000
vt 0.7363 0.9316 0.0000
vt -0.2363 0.4414 0.0000
vt 0.0000 0.4414 0.0000
vt 0.0000 0.0215 0.0000
vt 0.9707 0.4414 0.0000
vt 0.9707 0.0449 0.0000
vt 1.1113 0.4414 0.0000
vt 0.0000 0.9375 0.0000
vt 0.9707 0.8984 0.0000
vt -0.2188 0.4414 0.0000
vt 0.0000 0.0449 0.0000
vt 0.9688 0.4414 0.0000
vt 0.9688 0.0586 0.0000
vt 1.1309 0.4414 0.0000
vt 0.0000 0.8984 0.0000
vt 0.9688 0.8613 0.0000
vt -0.1973 0.4414 0.0000
vt 0.0000 0.0586 0.0000
vt 0.9668 0.4414 0.0000
vt 0.0000 0.8613 0.0000
vt 0.9668 0.7754 0.0000
vt 0.9668 0.0957 0.0000
vt 1.0762 0.4414 0.0000
vt -0.0352 0.9844 0.0000
vt -0.2520 0.4414 0.0000
vt 0.9668 0.0215 0.0000
vt 1.1543 0.4414 0.0000
vt 0.9668 0.9375 0.0000
vt 0.0119 0.9820 0.0000
vt 0.0101 0.9937 0.0110
vt 0.9865 0.9875 1.0000
vt 0.1133 0.0000 0.0000
vt 1.1167 0.4722 0.0000
vt 0.4844 0.6724 0.0000
vt 0.4844 0.2969 0.0000
vt 0.1216 0.4883 0.0000
vt 0.1211 0.4883 0.0000
vt 0.4839 0.6724 0.0000
vt 1.1201 0.4780 0.0000
vt -9.3535 0.9961 0.0000
vt 1.0898 0.9688 0.0000
vt 1.0898 0.0527 0.0000
vt -9.2715 0.9844 0.0000
vt -1.8184 0.2578 0.0000
vt -1.8965 0.9355 0.0000
vt 0.9590 0.9821 0.0000
vt 0.9603 0.0096 0.0000
vt 2.9084 0.9542 0.0000
vt -0.0840 0.9813 0.0000
vt -0.0840 0.0000 0.0000
vt 2.9688 0.0234 0.0000
vt 10.5176 0.7500 0.0000
vt -0.0137 0.0000 0.0000
vt -0.2910 0.9813 0.0000
vt 6.2090 0.8613 0.0000
vt -0.0996 0.9813 0.0000
vt -0.0605 0.0000 0.0000
# 101 texture coords

g Unagi
usemtl VMtl043
f 1/1/1 2/2/2 3/3/3 
f 4/4/4 5/5/5 3/3/3 
f 3/3/3 5/5/5 6/6/6 
f 3/3/3 2/2/2 4/4/4 
f 7/7/7 3/3/3 6/6/6 
f 3/3/3 7/7/7 1/1/1 
f 5/5/5 8/8/8 6/6/6 
f 8/8/8 5/5/5 4/4/4 
f 8/8/8 7/7/7 6/6/6 
f 8/8/8 2/2/2 1/1/1 
f 4/4/4 2/2/2 8/8/8 
f 1/1/1 7/7/7 8/8/8 
usemtl VMtl046
f 9/9/9 10/10/9 11/11/9 
f 11/11/10 12/12/10 13/13/10 
f 13/13/11 9/9/11 11/11/11 
f 12/12/12 14/14/12 13/13/12 
f 15/15/13 10/10/13 9/9/13 
f 16/15/14 17/16/14 18/17/14 
f 19/18/15 20/19/15 21/20/15 
f 22/21/16 19/18/16 21/20/16 
f 21/20/15 20/19/15 23/22/15 
f 16/15/17 23/22/17 20/19/17 
f 16/15/18 18/10/18 23/22/18 
f 16/15/14 24/23/14 17/16/14 
usemtl VMtl047
f 25/24/19 12/25/19 11/26/19 
f 11/26/20 26/27/20 25/24/20 
f 12/25/21 25/24/21 14/28/21 
f 14/28/22 25/24/22 13/25/22 
f 9/26/23 13/25/23 25/24/23 
f 26/27/24 9/26/24 25/24/24 
f 21/29/25 23/30/25 27/31/25 
f 27/31/26 28/32/26 29/33/26 
f 29/33/27 30/34/27 27/31/27 
f 18/35/28 28/32/28 27/31/28 
f 23/30/29 18/35/29 27/31/29 
f 31/31/30 30/34/30 29/33/30 
f 31/31/31 32/32/31 16/35/31 
f 33/36/32 16/35/32 32/32/32 
f 29/33/33 28/32/33 32/32/33 
f 29/33/34 32/32/34 31/31/34 
f 34/37/35 24/38/35 16/35/35 
f 33/36/36 35/39/36 34/37/36 
f 32/32/37 36/40/37 33/36/37 
f 36/40/38 35/39/38 33/36/38 
f 16/35/39 33/36/39 34/37/39 
f 24/38/40 34/37/40 37/37/40 
f 34/37/41 35/39/41 37/37/41 
f 31/31/42 20/30/42 19/29/42 
f 31/31/43 16/35/43 20/30/43 
f 37/37/44 35/39/44 38/36/44 
f 38/36/45 35/39/45 36/40/45 
f 37/37/46 38/36/46 18/35/46 
f 37/37/47 17/38/47 24/38/47 
f 18/35/48 17/38/48 37/37/48 
f 28/32/49 36/40/49 32/32/49 
f 28/32/50 18/35/50 38/36/50 
f 38/36/51 36/40/51 28/32/51 
f 39/41/52 21/29/53 27/31/54 
f 27/31/54 30/34/55 39/41/52 
f 40/41/56 30/34/55 31/31/57 
f 30/34/55 40/41/56 39/41/52 
f 31/31/57 19/29/58 40/41/56 
f 39/41/52 40/41/56 22/42/59 
f 22/42/59 21/29/53 39/41/52 
f 40/41/56 19/29/58 22/42/59 
f 15/43/60 41/44/61 42/45/62 
f 11/26/63 10/43/64 43/44/65 
f 43/44/65 26/27/66 11/26/63 
f 44/45/67 43/44/65 10/43/64 
f 26/27/66 43/44/65 41/44/61 
f 41/44/61 43/44/65 44/45/67 
f 41/44/61 44/45/67 42/45/62 
f 9/26/68 26/27/66 41/44/61 
f 41/44/61 15/43/60 9/26/68 
usemtl VMtl040
f 45/46/69 46/47/69 47/48/69 
f 48/49/70 49/50/70 47/48/70 
f 50/49/71 51/47/71 47/48/71 
f 47/48/72 49/50/72 50/49/72 
f 47/48/73 46/47/73 48/49/73 
f 47/48/74 51/47/74 45/46/74 
f 49/50/75 48/49/75 52/51/75 
f 50/49/76 49/50/76 52/51/76 
f 53/52/77 50/49/77 54/53/77 
f 53/52/78 51/47/78 50/49/78 
f 54/53/79 50/49/79 52/51/79 
f 45/46/80 53/52/80 46/47/80 
f 46/47/81 53/52/81 48/49/81 
f 53/52/82 54/53/82 48/49/82 
f 51/47/83 53/52/83 45/46/83 
f 48/49/84 54/53/84 52/51/84 
f 55/54/85 56/47/85 57/55/85 
f 58/56/86 59/57/86 57/55/86 
f 60/56/87 61/47/87 57/55/87 
f 57/55/88 59/57/88 60/56/88 
f 57/55/89 56/47/89 58/56/89 
f 57/55/90 61/47/90 55/54/90 
f 59/57/91 58/56/91 62/58/91 
f 60/56/92 59/57/92 62/58/92 
f 63/59/93 60/56/93 64/60/93 
f 63/59/94 61/47/94 60/56/94 
f 64/60/95 60/56/95 62/58/95 
f 55/54/96 63/59/96 56/47/96 
f 56/47/97 63/59/97 58/56/97 
f 63/59/98 64/60/98 58/56/98 
f 61/47/99 63/59/99 55/54/99 
f 58/56/100 64/60/100 62/58/100 
f 65/61/101 66/47/101 67/62/101 
f 67/62/102 66/47/102 68/63/102 
f 66/47/103 69/64/103 68/63/103 
f 65/61/104 69/64/104 66/47/104 
f 69/64/105 70/47/105 71/63/105 
f 69/64/106 72/65/106 68/63/106 
f 69/64/107 71/63/107 72/65/107 
f 70/47/108 69/64/108 65/61/108 
f 68/63/109 73/66/109 67/62/109 
f 68/63/110 72/65/110 74/67/110 
f 73/66/111 68/63/111 74/67/111 
f 67/62/112 73/66/112 71/63/112 
f 71/63/113 73/66/113 74/67/113 
f 72/65/114 71/63/114 74/67/114 
f 71/63/115 70/47/115 67/62/115 
f 67/62/116 70/47/116 65/61/116 
f 75/47/117 76/68/117 77/69/117 
f 78/70/118 79/63/118 80/71/118 
f 81/63/119 78/70/119 80/71/119 
f 82/72/120 81/63/120 80/71/120 
f 79/63/121 82/72/121 80/71/121 
f 83/68/122 84/47/122 77/69/122 
f 77/69/123 76/68/123 83/68/123 
f 76/68/124 75/47/124 81/63/124 
f 76/68/125 81/63/125 82/72/125 
f 83/68/126 82/72/126 79/63/126 
f 79/63/127 84/47/127 83/68/127 
f 83/73/128 76/74/128 82/75/128 
f 77/69/129 84/47/130 85/76/131 
f 85/76/131 75/47/132 77/69/129 
f 81/63/133 75/47/132 85/76/131 
f 79/63/134 78/70/135 85/76/131 
f 85/76/131 84/47/130 79/63/134 
f 85/76/131 78/70/135 81/63/133 
usemtl VMtl073
f 86/77/136 87/78/136 88/79/136 
f 88/79/137 87/78/137 89/80/137 
f 90/81/138 91/82/138 92/79/138 
f 92/79/139 91/78/139 93/83/139 
usemtl VMtl074
f 94/84/140 95/85/141 96/86/142 
f 97/87/143 98/86/144 99/85/145 
f 96/88/142 95/89/141 100/90/146 
f 100/90/146 101/91/147 96/88/142 
f 98/88/144 101/91/147 100/90/146 
f 100/90/146 99/89/145 98/88/144 
f 102/92/148 103/93/149 104/94/150 
f 104/94/150 105/95/151 102/92/148 
f 106/96/152 107/97/153 108/98/154 
f 109/99/155 110/100/155 105/101/155 
f 108/92/154 107/95/153 104/94/150 
f 104/94/150 103/93/149 108/92/154 
# 156 faces

